PathFileType        4      (X/Y/Z)      C:\Users\pc\Desktop\IMUTRC\Sujet_02\Sujet_02_velo_60.trc         
DataRate	CameraRate	NumFrames	NumMarkers	Units	OrigDataRate	OrigDataStartFrame	OrigNumFrames
60.0	60.0	4	64	mm	60.0	157	1250
Frame#	Time	pHipOrigin			pRightASI			pLeftASI			pRightCSI			pLeftCSI			pRightIschialTub			pLeftIschialTub			pSacrum			pL5SpinalProcess			pL3SpinalProcess			pT12SpinalProcess			pIJ			pT4SpinalProcess			pT8SpinalProcess			pPX			pC7SpinalProcess			pTopOfHead			pRightAuricularis			pLeftAuricularis			pBackOfHead			pRightAcromion			pLeftAcromion			pRightArmLatEpicondyle			pRightArmMedEpicondyle			pLeftArmLatEpicondyle			pLeftArmMedEpicondyle			pRightUlnarStyloid			pRightRadialStyloid			pRightOlecranon			pLeftUlnarStyloid			pLeftRadialStyloid			pLeftOlecranon			pRightTopOfHand			pRightPinky			pRightBallHand			pLeftTopOfHand			pLeftPinky			pLeftBallHand			pRightGreaterTrochanter			pRightKneeLatEpicondyle			pRightKneeMedEpicondyle			pRightPatella			pLeftGreaterTrochanter			pLeftKneeLatEpicondyle			pLeftKneeMedEpicondyle			pLeftPatella			pRightTibialTub			pRightLatMalleolus			pRightMedMalleolus			pLeftTibialTub			pLeftLatMalleolus			pLeftMedMalleolus			pRightHeelFoot			pRightFirstMetatarsal			pRightFifthMetatarsal			pRightPivotFoot			pRightHeelCenter			pRightToe			pLeftHeelFoot			pLeftFirstMetatarsal			pLeftFifthMetatarsal			pLeftPivotFoot			pLeftHeelCenter			pLeftToe			
		X1	Y1	Z1	X2	Y2	Z2	X3	Y3	Z3	X4	Y4	Z4	X5	Y5	Z5	X6	Y6	Z6	X7	Y7	Z7	X8	Y8	Z8	X9	Y9	Z9	X10	Y10	Z10	X11	Y11	Z11	X12	Y12	Z12	X13	Y13	Z13	X14	Y14	Z14	X15	Y15	Z15	X16	Y16	Z16	X17	Y17	Z17	X18	Y18	Z18	X19	Y19	Z19	X20	Y20	Z20	X21	Y21	Z21	X22	Y22	Z22	X23	Y23	Z23	X24	Y24	Z24	X25	Y25	Z25	X26	Y26	Z26	X27	Y27	Z27	X28	Y28	Z28	X29	Y29	Z29	X30	Y30	Z30	X31	Y31	Z31	X32	Y32	Z32	X33	Y33	Z33	X34	Y34	Z34	X35	Y35	Z35	X36	Y36	Z36	X37	Y37	Z37	X38	Y38	Z38	X39	Y39	Z39	X40	Y40	Z40	X41	Y41	Z41	X42	Y42	Z42	X43	Y43	Z43	X44	Y44	Z44	X45	Y45	Z45	X46	Y46	Z46	X47	Y47	Z47	X48	Y48	Z48	X49	Y49	Z49	X50	Y50	Z50	X51	Y51	Z51	X52	Y52	Z52	X53	Y53	Z53	X54	Y54	Z54	X55	Y55	Z55	X56	Y56	Z56	X57	Y57	Z57	X58	Y58	Z58	X59	Y59	Z59	X60	Y60	Z60	X61	Y61	Z61	X62	Y62	Z62	X63	Y63	Z63	X64	Y64	Z64	
157	2.6	0.0	1250.02827	7.654215598496017E-14	47.33227000000001	1368.47301	144.16384000000008	43.28336999999999	1369.1003	-144.90518999999992	-15.283189999999992	1426.98254	119.07204000000009	-18.590750000000007	1427.55281	-117.81744999999991	-43.16931999999999	1177.60418	59.70710000000007	-44.82309000000001	1177.88932	-58.73763999999993	-74.30597	1255.78798	1.0835100000000812	-56.79873	1373.03515	1.1975600000000877	-15.68238	1487.77315	8.268890000000093	33.13259	1588.14038	17.507240000000092	294.48659	1631.42375	35.01448000000008	173.24753	1732.98855	39.7477100000001	99.96805	1675.10631	28.969630000000095	197.76907	1548.2216	20.016420000000085	224.62871	1767.83195	47.61741000000009	463.97035	1780.77704	63.41384000000008	374.89443	1750.55282	118.33069000000009	381.79467	1777.64056	-7.983759999999914	367.99418	1812.82612	65.06762000000009	189.78531000000004	1708.40998	242.4210800000001	226.85276	1745.30635	-161.3289199999999	258.04644	1422.93364	288.78390000000013	220.18062000000003	1400.23696	241.33757000000008	311.13842	1452.1884	-147.01518999999993	270.19315	1438.50196	-98.71344999999992	364.34446	1166.3699	349.74559000000005	404.60541	1180.74066	309.7127500000001	216.75901000000002	1411.98448	285.1912100000001	440.41826	1205.8895	-181.68749999999994	473.49383	1223.39673	-136.63629999999995	271.50477	1443.63438	-146.55896999999993	549.62466	1084.42233	335.48888	464.59764	1099.36336	364.17338	403.86406	1139.56728	339.08157000000006	630.37466	1178.11743	-95.74805999999997	560.00354	1164.77315	-151.86246999999995	486.43892	1187.46983	-154.94191999999995	11.74753000000001	1227.04645	178.3799500000001	274.07098	863.55739	187.96045000000004	286.04661	861.67551	102.19209000000004	317.4684	893.55351	146.73005000000003	30.62340999999999	1230.46806	-174.3880699999999	448.91526	1075.86831	-127.28389999999996	449.71364	1084.9926	-41.173379999999966	463.34305	1126.90733	-86.33862999999995	317.41137	808.35541	146.04573000000002	68.88842	458.95198	91.29997000000003	85.54026	464.14143	25.148840000000025	492.36971	1035.72141	-86.28159999999997	301.90008	651.9308	-143.4225	302.98359	647.31163	-75.10433999999997	-10.949149999999998	375.6928	20.01642000000002	154.25759	291.29308	32.04908000000001	123.17797	286.67391	114.16773	159.84622	277.0934	79.21028	24.407490000000003	354.19368	32.22016000000002	230.10329	237.91596	103.61776	212.36794	558.80598	-94.15130999999998	380.19792	479.25354	-85.59728	363.31798	481.59164	-171.87889	393.99842	469.55898	-132.18821	250.00565	539.24577	-102.07803999999999	468.70357	434.25936	-147.81356	
158	2.617	0.0	1250.02827	7.654215598496017E-14	47.50336000000001	1368.64409	143.9357400000001	43.51147999999999	1368.81517	-145.0762699999999	-15.055079999999993	1427.21065	118.78690000000009	-18.30561000000001	1427.38173	-118.10257999999992	-43.28336999999999	1177.77526	59.76413000000007	-44.93715000000001	1177.83229	-58.68061999999993	-74.30597	1255.90203	1.0264800000000813	-56.62765	1373.09218	0.9694600000000875	-15.45427	1487.77315	8.040780000000092	33.3607	1588.14038	17.393190000000093	294.65767	1631.59483	35.24259000000008	173.36158	1733.04558	40.0328400000001	100.0821	1675.10631	29.083690000000097	198.0542	1548.33565	20.016420000000085	224.74276	1767.88897	48.01660000000009	464.02737	1780.83407	63.927080000000075	374.95145	1750.49579	118.78690000000009	381.8517	1777.81164	-7.4705199999999135	368.10823	1812.94018	65.63789000000008	189.78531000000004	1708.29593	242.64919000000012	227.48005	1745.59148	-161.0437899999999	258.3886	1422.87661	288.5558000000001	220.63683000000003	1400.17993	241.05244000000008	311.82274	1452.47354	-147.01518999999993	270.9345	1438.73007	-98.71344999999992	365.08581	1166.42692	349.40343000000007	405.28973	1180.79769	309.37059000000005	217.21522000000002	1411.92746	284.9060800000001	441.10258	1206.23166	-181.97263999999996	474.17815	1223.68187	-136.92143999999993	272.24612	1443.91951	-146.55896999999993	550.30898	1084.53639	335.14672	465.28196	1099.47742	363.83122	404.54838	1139.62431	338.7394100000001	631.05898	1178.51661	-95.97616999999997	560.68786	1165.11531	-152.14759999999995	487.18027	1187.75496	-155.22704999999993	12.48888000000001	1228.6432	178.66508000000007	283.76554	871.94034	192.63666000000003	295.62712	869.20305	106.86829000000004	326.36459	902.4497	150.89301000000003	29.76800999999999	1228.81428	-174.4450899999999	443.72582	1062.86619	-128.25335999999996	445.26554	1072.50372	-42.199859999999966	459.80739	1113.73413	-87.76429999999996	324.93892	815.48377	149.98058000000003	65.46681	475.14761	89.30403000000003	82.74594	480.67921	23.266950000000026	489.06215	1023.91686	-87.30808999999998	308.85735	634.9368	-142.22493	310.28302	630.60276	-73.90677999999997	-16.82292	395.36706	17.336160000000024	145.58951	305.49277	28.456390000000006	114.39584	301.1017	110.51801000000002	150.72193	290.72282	75.38948	17.849400000000003	372.61335	29.31179000000002	219.7244	249.0362	99.39778	222.74683	538.78956	-93.12481999999999	393.31409	465.22494	-84.39972	376.43415	467.0498	-170.68132	407.45675	456.10064	-130.99064	261.06886	520.598	-100.99452999999998	483.4165	423.48129	-146.50194	
159	2.633	0.0	1250.02827	7.654215598496017E-14	47.674440000000004	1368.81517	143.70763000000008	43.682559999999995	1368.47301	-145.30437999999992	-14.712919999999993	1427.49578	118.44474000000008	-18.020480000000006	1427.15362	-118.44473999999991	-43.39741999999999	1177.94635	59.93521000000007	-45.05120000000001	1177.77526	-58.50952999999993	-74.30597	1256.01609	1.0264800000000813	-56.45657	1373.14921	0.7413500000000874	-15.22617	1487.83018	7.812680000000093	33.53178	1588.14038	17.27913000000009	294.82875	1631.82294	35.52772000000008	173.36158	1733.15963	40.2609500000001	100.19615	1675.16334	29.140710000000094	198.28231	1548.50673	20.016420000000085	224.68574	1768.06006	48.41578000000009	464.02737	1780.94812	64.49735000000008	374.89443	1750.55282	119.30014000000008	381.8517	1778.09678	-6.900249999999914	368.10823	1813.05423	66.26518000000009	189.78531000000004	1708.18188	242.8202700000001	228.05032	1745.93364	-160.70162999999988	258.73076	1422.76256	288.27066000000013	221.03602000000004	1400.1229	240.7102800000001	312.56409	1452.87273	-147.01518999999993	271.61882	1439.07223	-98.71344999999992	365.71311	1166.48395	349.00424000000004	405.97405	1180.91174	308.9714000000001	217.55738000000002	1411.8134	284.62094000000013	441.72988	1206.63084	-182.31479999999993	474.80545	1224.02403	-137.26359999999994	272.93044	1444.3187	-146.55896999999993	550.9933	1084.59341	334.74753	465.96629	1099.53444	363.43203	405.2327	1139.68134	338.34022000000004	631.68627	1178.85877	-96.31832999999997	561.37218	1165.5145	-152.48975999999993	487.80756	1188.15415	-155.56920999999994	13.45833000000001	1230.52509	178.95021000000008	294.20145	881.40679	197.25583000000003	305.7779	877.58599	111.54449000000004	335.77402	912.37237	154.82786000000002	28.627469999999988	1226.98943	-174.4450899999999	437.28179	1048.09624	-129.39388999999997	439.61989	1058.36107	-43.454449999999966	455.24524	1098.67904	-89.41807999999996	333.26484	823.69563	153.97246000000004	63.584920000000004	492.42674	87.82133000000003	81.3773	498.12942	21.95533000000003	484.67109	1010.34447	-88.56267999999997	314.21787	616.63119	-141.25548	316.04273	612.63931	-72.99434999999997	-21.09993	416.12483	15.226170000000026	138.34711	321.00407	25.262890000000013	107.0964	316.78408	107.32451000000002	143.08033	305.54979	72.08192	12.831040000000002	392.17356	26.916670000000025	210.65714	261.46805	95.57698	231.52896	517.80368	-92.32644999999998	404.49135	450.0558	-83.43026	387.66844	451.31039	-169.71187	419.0332	441.44475	-129.96416	270.47829	500.92374	-100.13912999999998	496.01943	411.44863	-145.41843	
160	2.65	0.0	1250.02827	7.654215598496017E-14	47.90254000000001	1368.98625	143.5365500000001	43.91065999999999	1368.13085	-145.5324899999999	-14.427789999999993	1427.72389	118.10258000000009	-17.735350000000007	1426.98254	-118.78689999999992	-43.51147999999999	1178.11743	60.04926000000007	-45.16525000000001	1177.77526	-58.39547999999993	-74.30597	1256.18717	1.0264800000000813	-56.22846	1373.20624	0.5132400000000875	-14.99806	1487.83018	7.641600000000093	33.75989	1588.14038	17.165080000000092	294.9428	1632.10808	35.92691000000008	173.36158	1733.27368	40.6031100000001	100.31021	1675.22036	29.197740000000096	198.56745	1548.67781	20.073450000000086	224.68574	1768.23114	48.87200000000009	463.97035	1781.06217	65.23870000000008	374.78037	1750.60984	119.87041000000009	381.8517	1778.38191	-6.272949999999914	368.10823	1813.22531	66.94951000000009	189.78531000000004	1708.06782	243.10541000000012	228.67762	1746.33283	-160.35946999999987	259.07292	1422.6485	288.0425500000001	221.37818000000001	1400.06588	240.3681200000001	313.24842	1453.27191	-147.01518999999993	272.30315	1439.41439	-98.77047999999994	366.3404	1166.48395	348.54803000000004	406.60135	1181.02579	308.5722200000001	217.89954000000003	1411.64232	284.3358100000001	442.30015	1207.03003	-182.77100999999993	475.43274	1224.30916	-137.66277999999994	273.61476	1444.71789	-146.55896999999993	551.62059	1084.65044	334.29132	466.59358	1099.59147	362.97582	405.86	1139.73836	337.88401000000005	632.31357	1179.20094	-96.71751999999996	561.94245	1165.85666	-152.88894999999994	488.37783	1188.49631	-155.96839999999995	14.31374000000001	1232.34995	179.2353500000001	304.75142	891.50054	201.64690000000002	316.15678	886.71029	115.93556000000004	345.2975	922.92233	158.64866000000004	27.31584999999999	1225.10754	-174.4450899999999	429.69722	1032.2998	-130.70550999999998	433.00477	1043.1349	-44.823089999999965	449.71364	1082.54045	-91.24293999999996	341.81886	832.70587	157.73623000000003	63.18574000000001	509.93398	86.96593000000003	81.3773	515.92179	21.27101000000003	479.02543	995.7456	-89.93131999999997	317.81056	597.92639	-140.57115	319.97758	594.21964	-72.25299999999997	-23.72316	436.93963	13.914550000000029	132.87253	336.97158	22.525600000000015	101.73588	332.92267	104.64425000000001	137.20657	320.94704	69.17355	9.523480000000001	411.84782	25.262890000000024	203.58581	274.64125	92.04131	238.2011	496.76078	-91.69914999999999	413.10241	434.20234	-82.63189	396.33652	434.94369	-168.91349	427.92939	426.0475	-129.16579	277.66367	481.02137	-99.51182999999999	505.82804	398.33246	-144.50601	
